<?xml version="1.0" encoding="UTF-8" standalone="no"?>
<!DOCTYPE svg PUBLIC "-//W3C//DTD SVG 1.1//EN" "http://www.w3.org/Graphics/SVG/1.1/DTD/svg11.dtd">
<svg xmlns="http://www.w3.org/2000/svg" xmlns:xlink="http://www.w3.org/1999/xlink" version="1.1" width="1181.1024pt" height="1181.1024pt" viewBox="0 0 1181.1024 1181.1024">
<g enable-background="new">
<path transform="matrix(2.7777777,0,0,-2.7777777,0,1181.1024)" d="M 354.6196 356.7728 C 355.2783 356.1432 355.8994 355.5159 356.4822 354.892 C 371.9052 338.3833 374.108 311.8241 366.0361 281.2068 C 385.7695 268.1552 397.8383 251.9101 399.5073 233.8951 L 399.5073 233.8719 L 399.5323 233.5921 L 399.5555 233.5689 L 399.5725 233.3636 L 399.5725 233.3407 C 401.6871 207.1576 382.248 182.6804 349.0313 163.849 C 336.0246 156.4753 320.8487 149.9301 304.0109 144.4697 C 304.1932 142.9526 304.289 141.4091 304.289 139.843 C 304.289 118.4457 286.7953 101.0993 265.2151 101.0993 C 255.6488 101.0993 246.8874 104.51 240.0951 110.1694 C 209.2618 86.6228 178.1745 69.8083 150.5472 61.5036 C 116.0396 51.1305 86.5298 53.9028 68.6506 73.0406 C 68.1585 73.5673 67.6514 74.1362 67.1304 74.7462 C 51.6127 92.9055 50.0349 122.7146 60.4327 156.9886 C 38.8945 170.2789 25.5005 187.3491 23.9295 206.8033 C 23.8867 207.3336 23.8487 208.0868 23.8167 209.0645 C 23.0216 233.2193 42.1982 257.5791 74.425 276.6393 C 89.2431 285.4032 106.9036 293.1114 126.6792 299.1957 C 128.6858 318.7267 145.3226 333.9663 165.5495 333.9663 C 174.8415 333.9663 183.3741 330.7479 190.0803 325.3776 C 214.0169 342.9621 237.6896 355.9689 259.6221 363.9886 C 299.2703 378.4861 333.6491 376.8194 354.6196 356.7728 Z M 198.1494 316.5843 C 198.9675 315.3603 199.7175 314.0875 200.3933 312.7711 C 252.7401 316.6917 300.1861 310.0422 335.4177 296.5929 C 342.5913 293.8544 349.2734 290.8244 355.4076 287.5329 C 361.5109 312.7584 359.7029 334.0403 347.7838 346.7985 C 347.33 347.2849 346.879 347.7419 346.4331 348.1679 C 328.9779 364.8546 298.9843 365.7382 263.6691 352.8252 C 243.0567 345.2882 220.7727 333.085 198.1494 316.5843 Z M 204.1747 301.11 C 204.4701 299.1903 204.6234 297.2239 204.6234 295.2224 C 204.6234 273.8251 187.1297 256.4785 165.5495 256.4785 C 156.0549 256.4785 147.352 259.8375 140.5814 265.4209 C 109.1279 231.7921 86.6134 195.3842 74.8726 162.8518 L 74.7519 162.5125 C 78.0446 160.8043 81.5119 159.1719 85.14 157.6202 C 115.4616 144.652 156.621 137.5546 201.5252 139.0326 C 206.983 139.212 212.7155 139.5417 218.7176 140.0264 C 219.1184 140.0584 219.7834 140.1148 220.7049 140.1936 C 222.529 140.3498 224.3449 140.5182 226.1526 140.6976 C 226.6112 161.7004 243.9235 178.5869 265.2151 178.5869 C 273.9728 178.5869 282.0569 175.7307 288.5717 170.9059 C 316.8643 202.5989 338.3552 237.5422 349.7564 268.9696 C 350.5927 271.2747 351.3725 273.5586 352.0979 275.819 C 345.818 279.3283 338.8181 282.5626 331.185 285.4766 C 298.1208 298.0987 253.5908 304.4449 204.1747 301.11 Z M 132.647 274.3169 C 130.1766 278.1312 128.3655 282.4038 127.3657 286.9764 C 109.6682 281.3227 93.8415 274.3132 80.4719 266.4057 C 52.0047 249.5696 35.0342 228.9926 35.6777 209.4364 C 35.689 209.0883 35.7267 208.5191 35.7902 207.7333 C 36.9848 192.9481 47.3936 179.5431 64.3309 168.5509 C 76.8458 202.343 100.2424 239.8558 132.647 274.3169 Z M 296.9459 162.4544 C 298.4301 160.41 299.719 158.2169 300.784 155.9013 C 316.6608 161.0736 330.9435 167.2432 343.1704 174.1748 C 372.2896 190.6832 389.4069 211.2483 387.7132 232.3871 L 387.7118 232.3871 L 387.6945 232.5923 L 387.7152 232.594 L 387.6945 232.8256 L 387.6928 232.8256 C 386.4478 246.2627 377.4127 258.7448 362.4571 269.3208 C 361.965 267.8618 361.4539 266.3957 360.9196 264.9229 C 348.9619 231.9613 326.4772 195.4151 296.9459 162.4544 Z M 232.2139 119.0931 C 230.2846 122.1038 228.7641 125.3974 227.7261 128.8953 C 225.7206 128.6938 223.7057 128.5064 221.6815 128.3326 C 221.2651 128.2975 220.5887 128.2414 219.6479 128.1654 C 213.9038 127.7016 207.9785 127.372 201.8974 127.1718 C 155.2394 125.636 112.2922 133.0875 80.4889 146.6895 C 77.2231 148.0859 74.0733 149.5502 71.0427 151.0775 C 62.5847 121.7869 63.7486 96.9851 76.1539 82.4675 C 76.5187 82.0406 76.9173 81.5958 77.3487 81.1341 C 91.7969 65.6688 117.015 63.8408 147.1516 72.8997 C 173.2652 80.7494 202.7727 96.7017 232.2139 119.0931 " fill="#64c5b7"/>
</g>
</svg>
