<?xml version="1.0" encoding="UTF-8"?>
<svg version="1.1" xmlns="http://www.w3.org/2000/svg" width="492" height="507">
<path d="M0 0 C13.82866958 8.37891841 26.46588599 18.05304824 38.86669922 28.3840332 C40.89296736 30.12695866 40.89296736 30.12695866 43.01123047 31.09887695 C43.01123047 31.75887695 43.01123047 32.41887695 43.01123047 33.09887695 C43.93935547 33.56293945 43.93935547 33.56293945 44.88623047 34.03637695 C46.26123047 34.72387695 47.63623047 35.41137695 49.01123047 36.09887695 C49.01123047 36.75887695 49.01123047 37.41887695 49.01123047 38.09887695 C49.57455078 38.33219727 50.13787109 38.56551758 50.71826172 38.8059082 C54.45856091 40.91500366 57.14424521 44.20285155 60.08544922 47.2980957 C63.73655587 49.54530554 65.30233781 49.17332354 69.38989258 48.49072266 C83.72590424 46.34773125 99.30042337 47.51121275 113.43701172 50.44262695 C116.79340646 51.05888304 119.62024202 51.49260566 123.01123047 51.09887695 C124.70973355 49.62658915 124.70973355 49.62658915 125.76123047 47.59887695 C126.93310547 45.63012695 126.93310547 45.63012695 128.01123047 44.09887695 C128.67123047 44.09887695 129.33123047 44.09887695 130.01123047 44.09887695 C130.01123047 43.43887695 130.01123047 42.77887695 130.01123047 42.09887695 C130.67123047 42.09887695 131.33123047 42.09887695 132.01123047 42.09887695 C132.26195312 41.52363281 132.51267578 40.94838867 132.77099609 40.35571289 C134.17851874 37.79446499 135.79293072 36.05830303 137.85498047 33.98950195 C138.98226562 32.85834961 138.98226562 32.85834961 140.13232422 31.7043457 C141.30988281 30.53838867 141.30988281 30.53838867 142.51123047 29.34887695 C143.68878906 28.1597168 143.68878906 28.1597168 144.89013672 26.9465332 C145.64166016 26.19758789 146.39318359 25.44864258 147.16748047 24.67700195 C147.85648437 23.99025391 148.54548828 23.30350586 149.25537109 22.59594727 C151.01123047 21.09887695 151.01123047 21.09887695 153.01123047 21.09887695 C153.01123047 20.43887695 153.01123047 19.77887695 153.01123047 19.09887695 C154.69091797 17.59106445 154.69091797 17.59106445 156.88623047 15.97387695 C157.96517578 15.16563477 157.96517578 15.16563477 159.06591797 14.34106445 C161.01123047 13.09887695 161.01123047 13.09887695 163.01123047 13.09887695 C163.01123047 12.43887695 163.01123047 11.77887695 163.01123047 11.09887695 C169.66670803 5.38314768 177.23245372 1.07318647 185.01123047 -2.90112305 C185.84525391 -3.34327148 186.67927734 -3.78541992 187.53857422 -4.2409668 C197.39825219 -9.36550716 206.66432718 -13.49834111 218.01123047 -11.90112305 C224.73056318 -8.96905059 227.5509327 -3.360426 230.29248047 3.1340332 C236.25353262 18.96353449 238.97901447 35.3654915 241.01123047 52.09887695 C241.09488861 52.72597565 241.17854675 53.35307434 241.26473999 53.99917603 C242.04305145 60.2350071 242.18847954 66.40511991 242.21435547 72.68481445 C242.22005554 73.78121246 242.22575562 74.87761047 242.23162842 76.00723267 C242.24103459 78.32178802 242.24759486 80.6363565 242.25146484 82.95092773 C242.26110573 86.42887893 242.29214541 89.9062219 242.32373047 93.3840332 C242.37402985 104.47068936 242.17545327 115.18412782 239.97784424 126.08334351 C239.05861176 130.74055027 239.09060107 134.44763998 240.01123047 139.09887695 C240.16986572 139.91308105 240.32850098 140.72728516 240.49194336 141.56616211 C240.65428467 142.33234863 240.81662598 143.09853516 240.98388672 143.88793945 C243.82480092 158.56084958 244.4516758 172.93545972 244.51123047 187.84887695 C244.52131134 188.78580383 244.53139221 189.72273071 244.54177856 190.68804932 C244.69250247 207.94753999 242.88999 224.78114663 237.01123047 241.09887695 C237.68669922 241.76274414 238.36216797 242.42661133 239.05810547 243.1105957 C240.39615234 244.43510742 240.39615234 244.43510742 241.76123047 245.78637695 C242.64294922 246.65649414 243.52466797 247.52661133 244.43310547 248.4230957 C251.01123047 255.2503921 251.01123047 255.2503921 251.01123047 258.09887695 C251.67123047 258.09887695 252.33123047 258.09887695 253.01123047 258.09887695 C254.51904297 259.77856445 254.51904297 259.77856445 256.13623047 261.97387695 C256.67505859 262.69317383 257.21388672 263.4124707 257.76904297 264.15356445 C259.01123047 266.09887695 259.01123047 266.09887695 259.01123047 268.09887695 C259.67123047 268.09887695 260.33123047 268.09887695 261.01123047 268.09887695 C262.06444607 269.73243585 263.05104877 271.40895717 264.01123047 273.09887695 C265.11132983 274.73792408 266.21214274 276.37652427 267.32299805 278.00830078 C275.3891103 289.87838086 282.83099278 302.13545156 289.01123047 315.09887695 C289.60935547 316.23325195 290.20748047 317.36762695 290.82373047 318.53637695 C292.01123047 321.09887695 292.01123047 321.09887695 292.01123047 324.09887695 C292.67123047 324.09887695 293.33123047 324.09887695 294.01123047 324.09887695 C294.29095703 324.79110352 294.57068359 325.48333008 294.85888672 326.1965332 C297.19968131 331.90927627 299.66311388 337.52744818 302.32373047 343.09887695 C310.25513028 359.91327115 316.29101763 377.34000103 322.0078125 395.01196289 C322.86648424 397.6535798 323.74365794 400.28756514 324.63232422 402.91918945 C327.91662696 412.77537324 330.57433783 422.78546158 333.13623047 432.84887695 C333.46115479 434.10853271 333.7860791 435.36818848 334.12084961 436.66601562 C337.0578665 448.45065594 338.91208027 460.02876334 341.01123047 472.09887695 C221.22123047 472.09887695 101.43123047 472.09887695 -21.98876953 472.09887695 C-21.98876953 457.111191 -21.98876953 457.111191 -21.25439453 449.95825195 C-21.17636597 449.15534729 -21.0983374 448.35244263 -21.01794434 447.52520752 C-20.76591935 444.96559036 -20.50324072 442.40723576 -20.23876953 439.84887695 C-20.15050903 438.97457031 -20.06224854 438.10026367 -19.97131348 437.19946289 C-18.50589491 422.73696478 -16.60569482 408.40361324 -13.98876953 394.09887695 C-14.59205078 393.97770508 -15.19533203 393.8565332 -15.81689453 393.73168945 C-16.61611328 393.56411133 -17.41533203 393.3965332 -18.23876953 393.22387695 C-19.42212891 392.98024414 -19.42212891 392.98024414 -20.62939453 392.73168945 C-22.95708097 392.1073762 -24.87908905 391.25049153 -26.98876953 390.09887695 C-27.21564453 390.65575195 -27.44251953 391.21262695 -27.67626953 391.78637695 C-32.79572184 400.80636436 -42.416826 405.40132923 -51.98876953 408.09887695 C-71.14234651 412.41208704 -91.41872777 411.05655143 -108.98876953 402.09887695 C-111.97451209 400.03841473 -114.70316436 397.93215109 -116.98876953 395.09887695 C-116.98876953 394.43887695 -116.98876953 393.77887695 -116.98876953 393.09887695 C-117.64876953 393.09887695 -118.30876953 393.09887695 -118.98876953 393.09887695 C-120.24406505 390.64312892 -121.49301579 388.18446147 -122.73876953 385.72387695 C-123.26083984 384.70487305 -123.26083984 384.70487305 -123.79345703 383.6652832 C-128.16378589 375.00555749 -131.43451155 366.36677588 -133.61376953 356.91137695 C-133.81744141 356.08057617 -134.02111328 355.24977539 -134.23095703 354.39379883 C-137.16080408 341.9513394 -138.34543472 329.58696651 -138.30444336 316.84472656 C-138.30124339 314.76942153 -138.32501976 312.69549605 -138.35009766 310.62036133 C-138.3926976 301.63184013 -138.30519797 291.32043697 -131.65283203 284.39575195 C-125.25023823 279.40593706 -117.19380788 277.43790301 -109.48876953 275.34887695 C-108.71839355 275.13803467 -107.94801758 274.92719238 -107.15429688 274.70996094 C-96.09549466 271.87374447 -84.88903518 271.91240169 -73.54711914 271.91357422 C-71.190896 271.91139051 -68.8351446 271.89317564 -66.47900391 271.87426758 C-49.40897822 271.80992122 -27.40566535 272.78912006 -12.98876953 283.09887695 C-9.16661821 286.94872502 -8.0879337 290.69151484 -7.23876953 295.91137695 C-7.11373047 296.60424805 -6.98869141 297.29711914 -6.85986328 298.01098633 C-6.55617808 299.70461534 -6.27060235 301.40147476 -5.98876953 303.09887695 C-1.36876953 303.09887695 3.25123047 303.09887695 8.01123047 303.09887695 C7.68123047 298.80887695 7.35123047 294.51887695 7.01123047 290.09887695 C9.98123047 289.10887695 12.95123047 288.11887695 16.01123047 287.09887695 C14.45587237 283.98816076 11.89685761 283.76571311 8.69873047 282.59887695 C5.03245365 281.25224896 1.46063849 279.93856123 -1.98876953 278.09887695 C-1.98876953 277.43887695 -1.98876953 276.77887695 -1.98876953 276.09887695 C-2.75189453 275.81012695 -3.51501953 275.52137695 -4.30126953 275.22387695 C-6.98876953 274.09887695 -6.98876953 274.09887695 -9.98876953 272.09887695 C-9.98876953 271.43887695 -9.98876953 270.77887695 -9.98876953 270.09887695 C-10.52501953 269.87200195 -11.06126953 269.64512695 -11.61376953 269.41137695 C-14.81337115 267.64317606 -17.27914176 265.56217493 -19.98876953 263.09887695 C-19.98876953 262.43887695 -19.98876953 261.77887695 -19.98876953 261.09887695 C-20.64876953 261.09887695 -21.30876953 261.09887695 -21.98876953 261.09887695 C-23.66859653 259.02930592 -25.21463794 256.96688433 -26.73876953 254.78637695 C-27.40767212 253.84145386 -27.40767212 253.84145386 -28.09008789 252.87744141 C-31.39494061 248.13356207 -34.28009259 243.25310842 -36.93017578 238.1105957 C-37.83062609 236.15819518 -37.83062609 236.15819518 -38.98876953 235.09887695 C-45.94103418 234.40686913 -52.95063653 235.46754521 -59.83447266 236.38720703 C-64.24561437 236.96215041 -68.52892413 237.33979825 -72.98876953 237.09887695 C-75.05126953 235.41137695 -75.05126953 235.41137695 -75.98876953 233.09887695 C-75.3210577 230.70624289 -74.76779568 228.8779031 -72.98876953 227.09887695 C-63.39320004 225.4368568 -53.70182793 224.66759224 -43.98876953 224.09887695 C-44.27751953 222.90649414 -44.56626953 221.71411133 -44.86376953 220.4855957 C-45.23894651 218.91923183 -45.61393679 217.35282324 -45.98876953 215.78637695 C-46.17955078 215.00069336 -46.37033203 214.21500977 -46.56689453 213.40551758 C-46.74736328 212.64819336 -46.92783203 211.89086914 -47.11376953 211.1105957 C-47.28134766 210.41409912 -47.44892578 209.71760254 -47.62158203 209 C-47.98876953 207.09887695 -47.98876953 207.09887695 -47.98876953 204.09887695 C-49.25849609 203.83719727 -50.52822266 203.57551758 -51.83642578 203.3059082 C-57.14968822 202.12044181 -62.27323228 200.5320686 -67.42626953 198.78637695 C-68.3228125 198.50342773 -69.21935547 198.22047852 -70.14306641 197.92895508 C-76.57782501 195.74200999 -76.57782501 195.74200999 -78.64111328 192.51293945 C-79.05239684 189.65706037 -78.56937162 188.46978008 -76.98876953 186.09887695 C-67.75488302 185.25943273 -59.28607213 189.47917869 -50.98876953 193.09887695 C-50.99924316 192.39504883 -51.0097168 191.6912207 -51.02050781 190.96606445 C-51.57583457 147.88957847 -51.57583457 147.88957847 -41.36425781 129.11157227 C-36.61465972 120.23545029 -36.7700243 114.80789915 -39.36376953 105.22387695 C-39.97467994 102.65684224 -40.58272285 100.08912352 -41.18798828 97.52075195 C-41.49784668 96.26198242 -41.80770508 95.00321289 -42.12695312 93.70629883 C-43.33285421 88.65859501 -44.29832038 83.58762514 -45.17626953 78.47387695 C-45.33313232 77.56524902 -45.48999512 76.65662109 -45.65161133 75.72045898 C-49.83060093 50.53172608 -53.69446876 23.39201029 -48.98876953 -1.90112305 C-48.32876953 -1.90112305 -47.66876953 -1.90112305 -46.98876953 -1.90112305 C-46.78251953 -2.47862305 -46.57626953 -3.05612305 -46.36376953 -3.65112305 C-36.13780188 -20.38452465 -12.37287456 -7.30176801 0 0 Z " fill="#100F10" transform="translate(137.98876953125,34.901123046875)"/>
<path d="M0 0 C13.82866958 8.37891841 26.46588599 18.05304824 38.86669922 28.3840332 C40.89296736 30.12695866 40.89296736 30.12695866 43.01123047 31.09887695 C43.01123047 31.75887695 43.01123047 32.41887695 43.01123047 33.09887695 C43.62998047 33.40825195 44.24873047 33.71762695 44.88623047 34.03637695 C46.26123047 34.72387695 47.63623047 35.41137695 49.01123047 36.09887695 C49.01123047 36.75887695 49.01123047 37.41887695 49.01123047 38.09887695 C49.57455078 38.33219727 50.13787109 38.56551758 50.71826172 38.8059082 C54.45856091 40.91500366 57.14424521 44.20285155 60.08544922 47.2980957 C63.73655587 49.54530554 65.30233781 49.17332354 69.38989258 48.49072266 C83.72590424 46.34773125 99.30042337 47.51121275 113.43701172 50.44262695 C116.79340646 51.05888304 119.62024202 51.49260566 123.01123047 51.09887695 C124.70973355 49.62658915 124.70973355 49.62658915 125.76123047 47.59887695 C126.93310547 45.63012695 126.93310547 45.63012695 128.01123047 44.09887695 C128.67123047 44.09887695 129.33123047 44.09887695 130.01123047 44.09887695 C130.01123047 43.43887695 130.01123047 42.77887695 130.01123047 42.09887695 C130.67123047 42.09887695 131.33123047 42.09887695 132.01123047 42.09887695 C132.26195312 41.52363281 132.51267578 40.94838867 132.77099609 40.35571289 C134.17851874 37.79446499 135.79293072 36.05830303 137.85498047 33.98950195 C138.98226562 32.85834961 138.98226562 32.85834961 140.13232422 31.7043457 C141.30988281 30.53838867 141.30988281 30.53838867 142.51123047 29.34887695 C143.68878906 28.1597168 143.68878906 28.1597168 144.89013672 26.9465332 C145.64166016 26.19758789 146.39318359 25.44864258 147.16748047 24.67700195 C147.85648438 23.99025391 148.54548828 23.30350586 149.25537109 22.59594727 C151.01123047 21.09887695 151.01123047 21.09887695 153.01123047 21.09887695 C153.01123047 20.43887695 153.01123047 19.77887695 153.01123047 19.09887695 C154.69091797 17.59106445 154.69091797 17.59106445 156.88623047 15.97387695 C157.96517578 15.16563477 157.96517578 15.16563477 159.06591797 14.34106445 C161.01123047 13.09887695 161.01123047 13.09887695 163.01123047 13.09887695 C163.01123047 12.43887695 163.01123047 11.77887695 163.01123047 11.09887695 C169.66670803 5.38314768 177.23245372 1.07318647 185.01123047 -2.90112305 C185.84525391 -3.34327148 186.67927734 -3.78541992 187.53857422 -4.2409668 C197.39825219 -9.36550716 206.66432718 -13.49834111 218.01123047 -11.90112305 C224.73056318 -8.96905059 227.5509327 -3.360426 230.29248047 3.1340332 C236.25353262 18.96353449 238.97901447 35.3654915 241.01123047 52.09887695 C241.09488861 52.72597565 241.17854675 53.35307434 241.26473999 53.99917603 C242.04305145 60.2350071 242.18847954 66.40511991 242.21435547 72.68481445 C242.22005554 73.78121246 242.22575562 74.87761047 242.23162842 76.00723267 C242.24103459 78.32178802 242.24759486 80.6363565 242.25146484 82.95092773 C242.26110573 86.42887893 242.29214541 89.9062219 242.32373047 93.3840332 C242.37402985 104.47068936 242.17545327 115.18412782 239.97784424 126.08334351 C239.05861176 130.74055027 239.09060107 134.44763998 240.01123047 139.09887695 C240.16986572 139.91308105 240.32850098 140.72728516 240.49194336 141.56616211 C240.65428467 142.33234863 240.81662598 143.09853516 240.98388672 143.88793945 C243.82480092 158.56084958 244.4516758 172.93545972 244.51123047 187.84887695 C244.52131134 188.78580383 244.53139221 189.72273071 244.54177856 190.68804932 C244.68545874 207.14095766 243.41296253 223.75027109 237.46350098 239.23748779 C236.75239453 241.28100282 236.75239453 241.28100282 238.32373047 243.66137695 C239.15904297 244.37293945 239.15904297 244.37293945 240.01123047 245.09887695 C236.13881483 243.63002964 235.03924371 241.60180892 233.01123047 238.09887695 C232.35123047 238.09887695 231.69123047 238.09887695 231.01123047 238.09887695 C231.01123047 240.73887695 231.01123047 243.37887695 231.01123047 246.09887695 C232.00123047 246.09887695 232.99123047 246.09887695 234.01123047 246.09887695 C233.68123047 246.75887695 233.35123047 247.41887695 233.01123047 248.09887695 C232.18945312 248.04666992 232.18945312 248.04666992 231.35107422 247.9934082 C224.49753991 247.75938508 218.18840886 248.90256322 211.52685547 250.3449707 C208.3634749 251.02334009 205.20625773 251.59414105 202.01123047 252.09887695 C201.79208984 251.12305664 201.57294922 250.14723633 201.34716797 249.1418457 C201.03005859 247.86954102 200.71294922 246.59723633 200.38623047 245.28637695 C199.93376953 243.38952148 199.93376953 243.38952148 199.47216797 241.4543457 C197.66437863 237.30223062 196.08755993 236.7946728 192.01123047 235.09887695 C191.35123047 234.10887695 190.69123047 233.11887695 190.01123047 232.09887695 C185.46609654 232.69397039 181.89324489 234.58405685 177.94873047 236.78637695 C176.6045233 237.52359671 175.25946076 238.25925883 173.91357422 238.9934082 C173.25083496 239.35515137 172.5880957 239.71689453 171.90527344 240.08959961 C169.3140977 241.4703576 166.66450916 242.71743969 164.01123047 243.97387695 C159.28459833 246.31813402 154.89684404 248.99372339 150.51123047 251.91137695 C149.87096924 252.33668701 149.23070801 252.76199707 148.57104492 253.20019531 C145.57670915 255.22809919 142.78416205 257.2918109 140.02294922 259.63793945 C132.05622224 266.40359694 125.14049093 267.69095438 115.07202148 268.79907227 C111.94323845 269.25424885 109.03272467 270.17585192 106.01123047 271.09887695 C100.8519118 271.78678611 97.28113091 270.07373136 92.62451172 268.11450195 C88.48908538 266.50731085 84.38764347 265.75711793 80.01123047 265.09887695 C78.36767578 264.8378418 78.36767578 264.8378418 76.69091797 264.5715332 C66.68579987 263.18698656 56.65809051 262.72245715 46.57373047 262.34887695 C45.87003326 262.31978241 45.16633606 262.29068787 44.4413147 262.26071167 C42.42467777 262.17981801 40.40739375 262.11558169 38.39013672 262.05200195 C37.21008057 262.01236328 36.03002441 261.97272461 34.81420898 261.93188477 C31.87158023 261.79599206 31.87158023 261.79599206 30.01123047 264.09887695 C29.64071054 266.42341086 29.64071054 266.42341086 29.59716797 269.10668945 C29.55849609 270.09282227 29.51982422 271.07895508 29.47998047 272.0949707 C29.44904297 273.12750977 29.41810547 274.16004883 29.38623047 275.22387695 C29.34755859 276.26415039 29.30888672 277.30442383 29.26904297 278.3762207 C29.17458281 280.95026007 29.08901833 283.5242885 29.01123047 286.09887695 C27.75310547 286.42629883 26.49498047 286.7537207 25.19873047 287.09106445 C24.49103516 287.27523926 23.78333984 287.45941406 23.05419922 287.64916992 C20.66617344 288.17483238 18.44822246 288.25118895 16.01123047 288.09887695 C15.51623047 286.61387695 15.51623047 286.61387695 15.01123047 285.09887695 C12.13448713 283.69078171 12.13448713 283.69078171 8.69873047 282.53637695 C1.38961732 279.90902497 1.38961732 279.90902497 -1.98876953 278.09887695 C-1.98876953 277.43887695 -1.98876953 276.77887695 -1.98876953 276.09887695 C-2.75189453 275.81012695 -3.51501953 275.52137695 -4.30126953 275.22387695 C-6.98876953 274.09887695 -6.98876953 274.09887695 -9.98876953 272.09887695 C-9.98876953 271.43887695 -9.98876953 270.77887695 -9.98876953 270.09887695 C-10.52501953 269.87200195 -11.06126953 269.64512695 -11.61376953 269.41137695 C-14.81337115 267.64317606 -17.27914176 265.56217493 -19.98876953 263.09887695 C-19.98876953 262.43887695 -19.98876953 261.77887695 -19.98876953 261.09887695 C-20.64876953 261.09887695 -21.30876953 261.09887695 -21.98876953 261.09887695 C-23.66859653 259.02930592 -25.21463794 256.96688433 -26.73876953 254.78637695 C-27.18470459 254.15642822 -27.63063965 253.52647949 -28.09008789 252.87744141 C-31.39494061 248.13356207 -34.28009259 243.25310842 -36.93017578 238.1105957 C-37.83062609 236.15819518 -37.83062609 236.15819518 -38.98876953 235.09887695 C-45.94103418 234.40686913 -52.95063653 235.46754521 -59.83447266 236.38720703 C-64.24561437 236.96215041 -68.52892413 237.33979825 -72.98876953 237.09887695 C-75.05126953 235.41137695 -75.05126953 235.41137695 -75.98876953 233.09887695 C-75.3210577 230.70624289 -74.76779568 228.8779031 -72.98876953 227.09887695 C-63.39320004 225.4368568 -53.70182793 224.66759224 -43.98876953 224.09887695 C-44.27751953 222.90649414 -44.56626953 221.71411133 -44.86376953 220.4855957 C-45.23894651 218.91923183 -45.61393679 217.35282324 -45.98876953 215.78637695 C-46.17955078 215.00069336 -46.37033203 214.21500977 -46.56689453 213.40551758 C-46.74736328 212.64819336 -46.92783203 211.89086914 -47.11376953 211.1105957 C-47.36513672 210.06585083 -47.36513672 210.06585083 -47.62158203 209 C-47.98876953 207.09887695 -47.98876953 207.09887695 -47.98876953 204.09887695 C-49.25849609 203.83719727 -50.52822266 203.57551758 -51.83642578 203.3059082 C-57.14968822 202.12044181 -62.27323228 200.5320686 -67.42626953 198.78637695 C-68.3228125 198.50342773 -69.21935547 198.22047852 -70.14306641 197.92895508 C-76.57782501 195.74200999 -76.57782501 195.74200999 -78.64111328 192.51293945 C-79.05239684 189.65706037 -78.56937162 188.46978008 -76.98876953 186.09887695 C-67.75488302 185.25943273 -59.28607213 189.47917869 -50.98876953 193.09887695 C-50.99924316 192.39504883 -51.0097168 191.6912207 -51.02050781 190.96606445 C-51.57583457 147.88957847 -51.57583457 147.88957847 -41.36425781 129.11157227 C-36.61465972 120.23545029 -36.7700243 114.80789915 -39.36376953 105.22387695 C-39.97467994 102.65684224 -40.58272285 100.08912352 -41.18798828 97.52075195 C-41.49784668 96.26198242 -41.80770508 95.00321289 -42.12695312 93.70629883 C-43.33285421 88.65859501 -44.29832038 83.58762514 -45.17626953 78.47387695 C-45.33313232 77.56524902 -45.48999512 76.65662109 -45.65161133 75.72045898 C-49.83060093 50.53172608 -53.69446876 23.39201029 -48.98876953 -1.90112305 C-48.32876953 -1.90112305 -47.66876953 -1.90112305 -46.98876953 -1.90112305 C-46.78251953 -2.47862305 -46.57626953 -3.05612305 -46.36376953 -3.65112305 C-36.13780188 -20.38452465 -12.37287456 -7.30176801 0 0 Z " fill="#111011" transform="translate(137.98876953125,34.901123046875)"/>
<path d="M0 0 C1.79174805 0.83935547 1.79174805 0.83935547 3.79174805 3.83935547 C5.28061523 4.45230469 5.28061523 4.45230469 6.79956055 5.07763672 C9.79174805 6.83935547 9.79174805 6.83935547 11.03393555 10.19482422 C11.34717773 12.09167969 11.34717773 12.09167969 11.66674805 14.02685547 C12.00319336 15.9353125 12.00319336 15.9353125 12.34643555 17.88232422 C12.49338867 18.85814453 12.6403418 19.83396484 12.79174805 20.83935547 C14.02924805 20.38560547 15.26674805 19.93185547 16.54174805 19.46435547 C24.77140626 16.72977612 33.13546547 15.50642152 41.79174805 15.83935547 C43.71705937 21.10360761 44.83376675 26.41876128 45.91674805 31.90185547 C46.18938477 33.22926758 46.18938477 33.22926758 46.4675293 34.58349609 C46.72469727 35.87223633 46.72469727 35.87223633 46.98706055 37.18701172 C47.14190918 37.96052979 47.29675781 38.73404785 47.45629883 39.53100586 C47.81462028 41.99674772 47.84839168 44.35115993 47.79174805 46.83935547 C46.76436523 47.09330078 45.73698242 47.34724609 44.6784668 47.60888672 C36.68877493 49.59085574 28.72019865 51.62207691 20.79174805 53.83935547 C20.75436523 55.03689453 20.71698242 56.23443359 20.6784668 57.46826172 C19.51139014 88.4485513 19.51139014 88.4485513 12.79174805 97.83935547 C8.8219041 99.30992375 5.64413435 98.62123135 1.60424805 97.65185547 C0.03610352 97.29027344 0.03610352 97.29027344 -1.5637207 96.92138672 C-9.99039684 94.41957612 -17.71918093 90.71382253 -25.45825195 86.58935547 C-26.36486572 86.10990479 -27.27147949 85.6304541 -28.20556641 85.13647461 C-48.92117138 74.12643605 -48.92117138 74.12643605 -52.20825195 70.83935547 C-60.70940961 71.06101142 -68.56834786 73.79885845 -76.4074707 76.81591797 C-79.20825195 77.83935547 -79.20825195 77.83935547 -81.20825195 77.83935547 C-81.45188477 78.36013672 -81.69551758 78.88091797 -81.9465332 79.41748047 C-87.44697199 89.97559827 -94.35039081 101.12358748 -104.5324707 107.63623047 C-106.33588584 108.85647058 -106.33588584 108.85647058 -108.09887695 110.78466797 C-110.34380934 112.97139841 -112.56023253 114.40263839 -115.27075195 115.96435547 C-117.97477898 117.53391101 -120.60505455 119.10389053 -123.20825195 120.83935547 C-127.75647175 121.05593736 -130.28103239 119.26160104 -133.64575195 116.46435547 C-138.55724287 111.84953178 -141.84336123 106.6317745 -145.20825195 100.83935547 C-145.7909082 99.89705078 -146.37356445 98.95474609 -146.97387695 97.98388672 C-151.20825195 91.12776084 -151.20825195 91.12776084 -151.20825195 88.83935547 C-151.87727539 89.15517578 -152.54629883 89.47099609 -153.2355957 89.79638672 C-156.80528728 91.04882778 -159.99751699 91.29828811 -163.77075195 91.52685547 C-165.07141602 91.61322266 -166.37208008 91.69958984 -167.7121582 91.78857422 C-170.54087987 91.8296618 -172.56443414 91.73408262 -175.20825195 90.83935547 C-175.49829102 89.44910156 -175.49829102 89.44910156 -175.79418945 88.03076172 C-176.05458008 86.83322266 -176.3149707 85.63568359 -176.58325195 84.40185547 C-176.83848633 83.20689453 -177.0937207 82.01193359 -177.35668945 80.78076172 C-177.63770508 79.81009766 -177.9187207 78.83943359 -178.20825195 77.83935547 C-178.86825195 77.50935547 -179.52825195 77.17935547 -180.20825195 76.83935547 C-180.20825195 75.84935547 -180.20825195 74.85935547 -180.20825195 73.83935547 C-185.15825195 73.50935547 -190.10825195 73.17935547 -195.20825195 72.83935547 C-195.20825195 72.50935547 -195.20825195 72.17935547 -195.20825195 71.83935547 C-190.58825195 71.83935547 -185.96825195 71.83935547 -181.20825195 71.83935547 C-181.70325195 65.40435547 -181.70325195 65.40435547 -182.20825195 58.83935547 C-174.85887198 55.97434294 -168.06705058 55.19160456 -160.20825195 54.83935547 C-160.2239624 54.18862061 -160.23967285 53.53788574 -160.25585938 52.86743164 C-160.31819844 49.92066123 -160.35723879 46.97402949 -160.39575195 44.02685547 C-160.42088867 43.00269531 -160.44602539 41.97853516 -160.47192383 40.92333984 C-160.4815918 39.94042969 -160.49125977 38.95751953 -160.5012207 37.94482422 C-160.51693115 37.03885498 -160.5326416 36.13288574 -160.54882812 35.19946289 C-160.20825195 32.83935547 -160.20825195 32.83935547 -159.08154297 31.03149414 C-156.31920134 29.27357492 -154.19402906 29.54950563 -150.94262695 29.65966797 C-149.6707251 29.69874268 -148.39882324 29.73781738 -147.08837891 29.77807617 C-145.7116064 29.83874443 -144.33489738 29.90086876 -142.95825195 29.96435547 C-141.91814468 30.0058522 -141.91814468 30.0058522 -140.85702515 30.04818726 C-103.82076782 31.53309753 -103.82076782 31.53309753 -89.20825195 38.83935547 C-82.33430299 38.79007985 -75.81903272 37.40181163 -69.2277832 35.55810547 C-66.20825195 34.83935547 -66.20825195 34.83935547 -62.31762695 34.58935547 C-57.36073633 34.01219533 -54.39827435 31.44823674 -50.64575195 28.33935547 C-49.23054709 27.22868628 -47.81119259 26.12328616 -46.38793945 25.02294922 C-45.6825 24.47751465 -44.97706055 23.93208008 -44.25024414 23.37011719 C-34.929592 16.38297121 -24.26957837 11.16601447 -14.02075195 5.71435547 C-12.37055054 4.8240564 -12.37055054 4.8240564 -10.68701172 3.91577148 C-9.64859131 3.37235107 -8.6101709 2.82893066 -7.5402832 2.26904297 C-6.14386597 1.53016846 -6.14386597 1.53016846 -4.71923828 0.77636719 C-2.20825195 -0.16064453 -2.20825195 -0.16064453 0 0 Z " fill="#C7A7E9" transform="translate(327.208251953125,266.16064453125)"/>
<path d="M0 0 C0.57295577 30.72805872 -0.56958694 67.40346073 -21.9375 91.8125 C-27.65952196 97.32946657 -34.45608606 99.03278612 -42 101 C-42.64106689 101.17885742 -43.28213379 101.35771484 -43.94262695 101.54199219 C-57.66184223 104.59613338 -75.52568229 102.29293339 -87.75390625 95.56640625 C-106.10874213 82.76590332 -108.93395971 55.62937104 -112.69140625 35.25 C-114.48707705 24.19971812 -114.78556467 13.07050098 -113 2 C-112.17757812 2.33773438 -111.35515625 2.67546875 -110.5078125 3.0234375 C-80.30478334 15.09069857 -38.70440912 13.46130282 -8 3 C-1.78823529 0 -1.78823529 0 0 0 Z " fill="#D1D1D5" transform="translate(122,334)"/>
<path d="M0 0 C2.34951397 0.00315762 4.69775946 -0.02040818 7.04711914 -0.0456543 C22.81193728 -0.11232553 37.56926177 1.8432497 52.04907227 8.31567383 C52.04907227 9.63567383 52.04907227 10.95567383 52.04907227 12.31567383 C32.35652606 19.54675393 12.7270201 20.58634376 -8.07592773 20.62817383 C-8.9617453 20.63184967 -9.84756287 20.63552551 -10.76022339 20.63931274 C-24.04298118 20.66807162 -36.45444212 20.22500746 -48.95092773 15.31567383 C-50.61676241 15.26301813 -52.28544241 15.25293294 -53.95092773 15.31567383 C-58.75995874 37.98682001 -54.71190762 61.40903426 -47.95092773 83.31567383 C-47.49073242 84.89155273 -47.49073242 84.89155273 -47.02124023 86.49926758 C-43.77979357 97.01387763 -39.576864 107.2308851 -29.95092773 113.31567383 C-26.36742154 115.02415205 -22.76769115 116.23831791 -18.95092773 117.31567383 C-18.21745117 117.54125977 -17.48397461 117.7668457 -16.72827148 117.99926758 C-4.88089568 121.02901977 8.68803495 120.53431132 20.36157227 117.12817383 C21.37296265 116.83414673 21.37296265 116.83414673 22.40478516 116.53417969 C26.02380038 115.34994815 28.79938897 113.87948812 31.84204102 111.57739258 C33.42952148 110.4578418 33.42952148 110.4578418 35.04907227 109.31567383 C38.04907227 110.31567383 38.04907227 110.31567383 40.04907227 112.31567383 C40.70907227 111.65567383 41.36907227 110.99567383 42.04907227 110.31567383 C44.17407227 109.69067383 44.17407227 109.69067383 46.04907227 109.31567383 C43.19919034 116.31083856 36.29810633 121.34096249 29.61157227 124.44848633 C10.67642314 131.87943148 -11.95300506 131.51375952 -30.734375 123.84936523 C-35.86762017 121.58383575 -40.40093466 118.71630422 -43.95092773 114.31567383 C-43.95092773 113.65567383 -43.95092773 112.99567383 -43.95092773 112.31567383 C-44.61092773 112.31567383 -45.27092773 112.31567383 -45.95092773 112.31567383 C-47.20622325 109.8599258 -48.45517399 107.40125835 -49.70092773 104.94067383 C-50.04897461 104.26133789 -50.39702148 103.58200195 -50.75561523 102.88208008 C-55.1259441 94.22235437 -58.39666976 85.58357275 -60.57592773 76.12817383 C-60.77959961 75.29737305 -60.98327148 74.46657227 -61.19311523 73.6105957 C-64.12296228 61.16813628 -65.30759292 48.80376339 -65.26660156 36.06152344 C-65.26340159 33.98621841 -65.28717797 31.91229292 -65.31225586 29.8371582 C-65.36387839 19.12989812 -64.64312525 10.21576857 -56.95092773 2.31567383 C-55.63092773 2.64567383 -54.31092773 2.97567383 -52.95092773 3.31567383 C-53.94092773 4.63567383 -54.93092773 5.95567383 -55.95092773 7.31567383 C-55.29092773 7.31567383 -54.63092773 7.31567383 -53.95092773 7.31567383 C-53.95092773 8.30567383 -53.95092773 9.29567383 -53.95092773 10.31567383 C-52.95061523 9.87352539 -51.95030273 9.43137695 -50.91967773 8.97583008 C-47.16016319 7.3687886 -43.34300867 6.00194879 -39.45092773 4.75317383 C-38.20311523 4.33938477 -36.95530273 3.9255957 -35.66967773 3.49926758 C-24.02571183 0.27613799 -11.99560356 -0.03351768 0 0 Z M38.04907227 113.31567383 C39.04907227 115.31567383 39.04907227 115.31567383 39.04907227 115.31567383 Z " fill="#202020" transform="translate(64.950927734375,315.684326171875)"/>
<path d="M0 0 C5.97437678 4.21924149 12.34888117 10.43967749 13.69921875 17.90625 C14.61898689 29.52160765 14.12103144 38.15730649 6.57421875 47.21875 C2.40959216 51.60113485 -1.57355361 54.07767732 -7.30078125 55.90625 C-8.29078125 56.23625 -9.28078125 56.56625 -10.30078125 56.90625 C-20.99723507 57.80996701 -28.3347483 56.39451904 -36.61328125 49.53125 C-43.36667365 43.20664442 -46.80232067 36.14008609 -47.67578125 26.96875 C-47.18231572 16.62653501 -42.73117564 9.23819118 -35.48828125 2.15625 C-24.27651113 -5.75794067 -12.21219486 -6.9131784 0 0 Z " fill="#F8FAF9" transform="translate(277.30078125,177.09375)"/>
<path d="M0 0 C7.34980472 5.17340623 12.17625933 11.12774808 14 20 C15.10775171 29.31072324 13.24888551 36.23026816 8 44 C5.86341057 46.37555009 3.64903067 48.22564927 1 50 C0.154375 50.598125 -0.69125 51.19625 -1.5625 51.8125 C-8.45582824 55.17078812 -17.72890951 54.90191258 -25.02734375 52.8125 C-33.09684541 49.48882407 -39.02683883 42.66383549 -42.375 34.75 C-44.05809908 24.65140549 -43.28439652 17.74769392 -38.25 8.9375 C-29.10456095 -3.00237875 -13.80579203 -7.45114047 0 0 Z " fill="#F9FAFA" transform="translate(164,174)"/>
<path d="M0 0 C2.46056658 12.2052467 2.27232991 24.38263739 2.20581055 36.77856445 C2.18745155 40.32185009 2.18530215 43.86487463 2.18554688 47.40820312 C2.18063371 49.68489807 2.17480628 51.96159127 2.16796875 54.23828125 C2.16685593 55.28534744 2.1657431 56.33241364 2.16459656 57.41120911 C2.12651516 63.35163611 1.76606361 69.10799656 1 75 C-2.9453779 73.18690351 -5.59095303 70.60388307 -8.5625 67.5 C-11.24911113 64.71628244 -13.75839833 62.16106778 -17 60 C-17 59.34 -17 58.68 -17 58 C-17.56710693 57.75451416 -18.13421387 57.50902832 -18.71850586 57.25610352 C-21.39471806 55.78268332 -23.29011081 54.00737355 -25.50390625 51.90234375 C-30.96628151 46.8970878 -36.81619256 42.71835863 -42.9375 38.5625 C-43.96423828 37.85673828 -44.99097656 37.15097656 -46.04882812 36.42382812 C-49.68501481 33.92737734 -53.33008517 31.44660988 -57 29 C-56.23547091 22.39724881 -51.85188905 19.14150998 -47 15 C-31.89321041 4.08123129 -18.58685737 -0.21025857 0 0 Z " fill="#443C42" transform="translate(369,82)"/>
<path d="M0 0 C1.2463623 -0.01675781 2.49272461 -0.03351563 3.77685547 -0.05078125 C4.47793427 -0.06020752 5.17901306 -0.06963379 5.90133667 -0.0793457 C20.71848102 0.48085694 36.39758947 11.6602584 47 21 C47.56847656 21.49757813 48.13695312 21.99515625 48.72265625 22.5078125 C50.125 23.8125 50.125 23.8125 52 26 C52 26.99 52 27.98 52 29 C46.74285714 33 46.74285714 33 44 33 C44 33.66 44 34.32 44 35 C40.53846154 38 40.53846154 38 38 38 C37.67 38.99 37.34 39.98 37 41 C35.609375 42.33203125 35.609375 42.33203125 33.75 43.8125 C29.62491152 47.30985763 25.931461 51.1111964 22.25 55.0625 C21.69538086 55.65200439 21.14076172 56.24150879 20.56933594 56.84887695 C18.03503043 59.59105677 15.73807486 62.27711832 13.734375 65.43359375 C13.16203125 66.28050781 12.5896875 67.12742187 12 68 C11.34 68 10.68 68 10 68 C8.71868266 61.37288499 7.4577469 54.74210589 6.2097168 48.10864258 C5.78451296 45.86104493 5.35495795 43.61426524 4.9206543 41.3684082 C2.25081008 27.54386227 0.2527535 14.0918007 0 0 Z " fill="#443C42" transform="translate(98,77)"/>
<path d="M0 0 C2.40262656 -0.00961916 4.80436345 -0.04067752 7.20678711 -0.07226562 C23.09991165 -0.18177432 37.8983668 1.71259202 52.50170898 8.24023438 C52.50170898 9.56023437 52.50170898 10.88023437 52.50170898 12.24023438 C32.80916278 19.47131448 13.17965682 20.51090431 -7.62329102 20.55273438 C-8.50910858 20.55641022 -9.39492615 20.56008606 -10.30758667 20.56387329 C-40.41505283 20.62905983 -40.41505283 20.62905983 -51.49829102 13.24023438 C-51.49829102 12.25023437 -51.49829102 11.26023437 -51.49829102 10.24023438 C-45.56460728 6.68293995 -39.63111987 4.54930952 -32.93579102 2.99023438 C-32.24042236 2.82749023 -31.54505371 2.66474609 -30.82861328 2.49707031 C-20.591413 0.23785919 -10.43623611 0.02512485 0 0 Z " fill="#5B3E0B" transform="translate(64.498291015625,315.759765625)"/>
<path d="M0 0 C2.40262656 -0.00961916 4.80436345 -0.04067752 7.20678711 -0.07226562 C23.09991165 -0.18177432 37.8983668 1.71259202 52.50170898 8.24023438 C52.50170898 9.56023437 52.50170898 10.88023437 52.50170898 12.24023438 C47.63169907 13.87533432 43.87448098 14.66831126 38.95483398 12.89648438 C33.07525458 10.99593183 27.25518896 10.22029686 21.12670898 9.55273438 C19.98838623 9.42753418 18.85006348 9.30233398 17.67724609 9.17333984 C-2.38725587 7.10657382 -21.93096414 7.43998958 -41.02954102 14.52148438 C-44.57133315 15.55263905 -46.97704684 15.2005737 -50.49829102 14.24023438 C-50.82829102 12.92023438 -51.15829102 11.60023438 -51.49829102 10.24023438 C-45.56460728 6.68293995 -39.63111987 4.54930952 -32.93579102 2.99023438 C-32.24042236 2.82749023 -31.54505371 2.66474609 -30.82861328 2.49707031 C-20.591413 0.23785919 -10.43623611 0.02512485 0 0 Z " fill="#CFD0CF" transform="translate(64.498291015625,315.759765625)"/>
<path d="M0 0 C6.75264953 8.17425996 5.67114674 18.85708107 4.7265625 28.91015625 C3.77196638 34.16043489 2.0076979 37.43760187 -2 41 C-5.5 42.125 -5.5 42.125 -9 42 C-12.16898404 40.23945331 -13.60514852 38.86011353 -15.1171875 35.56640625 C-16.36495393 30.52565072 -16.32885094 25.67343738 -16.3125 20.5 C-16.32861328 19.48035156 -16.34472656 18.46070313 -16.36132812 17.41015625 C-16.36492784 11.87379534 -16.21245194 7.73134174 -13 3 C-8.58100407 -0.9168373 -5.6794316 -1.89314387 0 0 Z " fill="#0D0D0D" transform="translate(269,180)"/>
<path d="M0 0 C4.26518314 2.87079635 6.50214321 5.11478819 8 10 C8.98913013 20.16733763 8.15342125 28.12792168 2.1875 36.5625 C-1.03593141 38.68075492 -3.23264777 38.53819318 -7 38 C-10.85002516 35.5402617 -12.18934774 31.92928718 -13.4609375 27.6953125 C-15.09286732 19.53566341 -14.9072744 11.41034799 -11 4 C-7.56016378 0.28125814 -5.03892763 -0.92551732 0 0 Z " fill="#0E0E0E" transform="translate(159,179)"/>
<path d="M0 0 C2.22843899 2.86324653 4.11584207 5.80154245 5.9375 8.9375 C8.06401764 12.52765571 10.25875225 15.83702183 13 19 C12.34 19 11.68 19 11 19 C11 19.66 11 20.32 11 21 C3.125 20.66346154 3.125 20.66346154 -0.4375 18.5625 C-2.81935026 14.65626557 -3.34959263 10.48438769 -4 6 C-3.01 5.67 -2.02 5.34 -1 5 C-1.33 3.68 -1.66 2.36 -2 1 C-1.34 0.67 -0.68 0.34 0 0 Z " fill="#1C1D1D" transform="translate(19,409)"/>
<path d="M0 0 C2.97397616 0.27036147 3.85446026 0.85446026 6 3 C6.66 2.34 7.32 1.68 8 1 C10.125 0.375 10.125 0.375 12 0 C9.08168189 7.16314446 2.11519561 11.48515824 -4.25 15.375 C-6 16 -6 16 -9 15 C-8.34 15 -7.68 15 -7 15 C-7.33 14.01 -7.66 13.02 -8 12 C-7.67 11.34 -7.34 10.68 -7 10 C-7.99 10.33 -8.98 10.66 -10 11 C-10 10.34 -10 9.68 -10 9 C-10.66 8.34 -11.32 7.68 -12 7 C-11.38511719 6.74605469 -10.77023438 6.49210937 -10.13671875 6.23046875 C-9.32847656 5.88628906 -8.52023438 5.54210937 -7.6875 5.1875 C-6.88699219 4.85105469 -6.08648437 4.51460938 -5.26171875 4.16796875 C-3.02631469 3.0135891 -1.74665471 1.76708342 0 0 Z M4 4 C5 6 5 6 5 6 Z M-10 13 C-8 14 -8 14 -8 14 Z " fill="#232123" transform="translate(99,425)"/>
<path d="M0 0 C1.984375 0.796875 1.984375 0.796875 3.03125 2.46875 C4.83189011 7.79064187 5.94235483 12.31453146 3.984375 17.796875 C3.324375 18.126875 2.664375 18.456875 1.984375 18.796875 C1.654375 19.786875 1.324375 20.776875 0.984375 21.796875 C1.644375 22.126875 2.304375 22.456875 2.984375 22.796875 C2.324375 23.456875 1.664375 24.116875 0.984375 24.796875 C-0.38845542 21.72152042 -1.73552293 18.63553219 -3.078125 15.546875 C-3.46806641 14.67417969 -3.85800781 13.80148437 -4.25976562 12.90234375 C-4.80600586 11.63583984 -4.80600586 11.63583984 -5.36328125 10.34375 C-5.70367432 9.56870117 -6.04406738 8.79365234 -6.39477539 7.99511719 C-7.0974246 5.50724718 -6.86259913 4.20583258 -6.015625 1.796875 C-6.015625 2.786875 -6.015625 3.776875 -6.015625 4.796875 C-5.726875 4.1575 -5.438125 3.518125 -5.140625 2.859375 C-3.72565988 0.26527228 -2.95784989 -0.2980779 0 0 Z " fill="#292A29" transform="translate(14.015625,396.203125)"/>
<path d="M0 0 C0 0.33 0 0.66 0 1 C-2.0001827 0.85669423 -4.00013825 0.71021706 -6 0.5625 C-7.11375 0.48128906 -8.2275 0.40007812 -9.375 0.31640625 C-11.84173977 0.10109814 -14.30364242 -0.17669903 -16.75732422 -0.50927734 C-22.79824386 -1.27183517 -28.85489594 -1.18598237 -34.93359375 -1.18530273 C-37.09916302 -1.18747409 -39.26420895 -1.20563556 -41.4296875 -1.22460938 C-50.35064964 -1.26137822 -59.27040383 -1.05162307 -68 1 C-68.66 1.66 -69.32 2.32 -70 3 C-73.125 3.125 -73.125 3.125 -76 3 C-76 2.34 -76 1.68 -76 1 C-51.38007547 -6.53671159 -25.01974283 -5.25077757 0 0 Z " fill="#67542D" transform="translate(103,327)"/>
<path d="M0 0 C1.11375 0.556875 1.11375 0.556875 2.25 1.125 C2.25 0.465 2.25 -0.195 2.25 -0.875 C5.93754757 -0.37668276 7.85490662 0.22567643 10.25 3.125 C9.92 3.785 9.59 4.445 9.25 5.125 C9.91 5.125 10.57 5.125 11.25 5.125 C11.25 5.785 11.25 6.445 11.25 7.125 C11.91 7.455 12.57 7.785 13.25 8.125 C12.26 9.115 11.27 10.105 10.25 11.125 C3.04002813 9.37257628 -1.51234264 6.33411427 -6.75 1.125 C-3.09375 -0.984375 -3.09375 -0.984375 0 0 Z " fill="#212121" transform="translate(27.75,428.875)"/>
<path d="M0 0 C0.33 0.66 0.66 1.32 1 2 C-1.25204496 7.63011241 -4.61217031 11.04669738 -9.25390625 14.84375 C-14.18674 18.96104302 -17.05705592 21.53409777 -18 28 C-20.97 27.67 -23.94 27.34 -27 27 C-24.31158141 24.74754119 -22.35358125 23.11786042 -19 22 C-18.53980469 21.07380859 -18.53980469 21.07380859 -18.0703125 20.12890625 C-16.74705679 17.49688303 -15.29726054 16.58750675 -12.875 14.9375 C-7.35074296 10.83683594 -3.77413183 5.68690708 0 0 Z " fill="#22172C" transform="translate(239,355)"/>
<path d="M0 0 C4.95 1.32 9.9 2.64 15 4 C14.01 4.66 13.02 5.32 12 6 C11.443125 6.70125 10.88625 7.4025 10.3125 8.125 C6.87310984 10.91369472 4.34438069 10.28962538 0 10 C0.33 7.69 0.66 5.38 1 3 C0.34 3 -0.32 3 -1 3 C-0.67 2.01 -0.34 1.02 0 0 Z M-3 3 C-1 4 -1 4 -1 4 Z " fill="#131013" transform="translate(38,431)"/>
<path d="M0 0 C-0.99 0.495 -0.99 0.495 -2 1 C-2 1.66 -2 2.32 -2 3 C-2.66 3 -3.32 3 -4 3 C-4.33 4.98 -4.66 6.96 -5 9 C-6.65 8.67 -8.3 8.34 -10 8 C-11.01560704 5.41481845 -11.14715729 4.3531775 -10.0625 1.75 C-6.84616026 -0.97901554 -4.12871935 -0.2707357 0 0 Z " fill="#3F3F3F" transform="translate(73,262)"/>
<path d="M0 0 C0.33 0 0.66 0 1 0 C1.67466746 3.22754814 2.33830569 6.45726935 3 9.6875 C3.19078125 10.59951172 3.3815625 11.51152344 3.578125 12.45117188 C3.75859375 13.33740234 3.9390625 14.22363281 4.125 15.13671875 C4.29257812 15.94842529 4.46015625 16.76013184 4.6328125 17.59643555 C5.0153713 20.10061865 5.06298509 22.47075502 5 25 C3.02 25.33 1.04 25.66 -1 26 C-0.01 25.67 0.98 25.34 2 25 C1.67 24.01 1.34 23.02 1 22 C1.9375 19.3125 1.9375 19.3125 3 17 C2.34 17 1.68 17 1 17 C0.67 11.39 0.34 5.78 0 0 Z " fill="#AA95C3" transform="translate(370,288)"/>
<path d="M0 0 C2.31399338 2.83990097 3.999446 5.45258126 5 9 C4.01 10.485 4.01 10.485 3 12 C2.34 12 1.68 12 1 12 C0.34 11.01 -0.32 10.02 -1 9 C-1.99 9 -2.98 9 -4 9 C-3.67 7.68 -3.34 6.36 -3 5 C-2.34 5 -1.68 5 -1 5 C-1.33 3.68 -1.66 2.36 -2 1 C-1.34 0.67 -0.68 0.34 0 0 Z " fill="#0A0B0B" transform="translate(19,409)"/>
<path d="M0 0 C0.33 0.99 0.66 1.98 1 3 C1.66 3.33 2.32 3.66 3 4 C2.67 4.66 2.34 5.32 2 6 C1.76862284 9.44127621 1.60455322 12.87577869 1.48242188 16.32226562 C1.39109432 18.21946625 1.20286566 20.11146711 1 22 C0.34 22.33 -0.32 22.66 -1 23 C-1.02887512 19.35418313 -1.04675585 15.70839537 -1.0625 12.0625 C-1.07087891 11.02158203 -1.07925781 9.98066406 -1.08789062 8.90820312 C-1.09272461 7.42416992 -1.09272461 7.42416992 -1.09765625 5.91015625 C-1.10289307 4.99371338 -1.10812988 4.07727051 -1.11352539 3.13305664 C-1 1 -1 1 0 0 Z " fill="#AE99C8" transform="translate(168,298)"/>
<path d="M0 0 C0.33 0 0.66 0 1 0 C1.42691034 8.44333791 1.63421641 14.75903687 -3 22 C-3.66 21.67 -4.32 21.34 -5 21 C-4.54625 19.7625 -4.0925 18.525 -3.625 17.25 C-1.7274158 11.61120713 -0.84492995 5.87474822 0 0 Z " fill="#1C1326" transform="translate(346,339)"/>
<path d="M0 0 C0.66 0 1.32 0 2 0 C2.33 3.63 2.66 7.26 3 11 C1 9.1875 1 9.1875 -1 7 C-1 6.01 -1 5.02 -1 4 C-5.95 3.67 -10.9 3.34 -16 3 C-16 2.67 -16 2.34 -16 2 C-14.51886719 2.03480469 -14.51886719 2.03480469 -13.0078125 2.0703125 C-11.08582031 2.09738281 -11.08582031 2.09738281 -9.125 2.125 C-7.84882813 2.14820313 -6.57265625 2.17140625 -5.2578125 2.1953125 C-1.91406662 2.35641524 -1.91406662 2.35641524 0 0 Z " fill="#978EA0" transform="translate(148,336)"/>
<path d="M0 0 C0.99 1.485 0.99 1.485 2 3 C-1.60837604 2.43025642 -5.17702847 1.75517064 -8.75 1 C-13.80895484 -0.03024308 -18.85772514 -0.58424161 -24 -1 C-24 -1.33 -24 -1.66 -24 -2 C-15.43242309 -3.18173475 -8.13088343 -3.55360553 0 0 Z " fill="#281C30" transform="translate(232,300)"/>
<path d="M0 0 C0.66 0.33 1.32 0.66 2 1 C-0.90987161 5.14097114 -3.4609418 6.86942166 -8 9 C-9.3303125 10.11375 -9.3303125 10.11375 -10.6875 11.25 C-11.450625 11.8275 -12.21375 12.405 -13 13 C-13.99 12.67 -14.98 12.34 -16 12 C-13.89674758 10.37380483 -11.79244271 8.74900468 -9.6875 7.125 C-9.09259766 6.66480469 -8.49769531 6.20460938 -7.88476562 5.73046875 C-5.29971995 3.73752851 -2.71700932 1.81133955 0 0 Z " fill="#B9A2D3" transform="translate(288,286)"/>
<path d="M0 0 C-2.33081214 5.72108435 -7.22850416 9.31913178 -12 13 C-10.52948846 7.73066697 -8.65579765 3.64034561 -3.875 0.6875 C-2 0 -2 0 0 0 Z " fill="#201628" transform="translate(252,342)"/>
<path d="M0 0 C1.875 0.625 1.875 0.625 4 2 C5.25 5.125 5.25 5.125 6 8 C4.02 8.33 2.04 8.66 0 9 C-1.125 3.375 -1.125 3.375 0 0 Z " fill="#060709" transform="translate(369,272)"/>
<path d="M0 0 C0.66 0.33 1.32 0.66 2 1 C2.99 0.67 3.98 0.34 5 0 C5 0.66 5 1.32 5 2 C5.66 2.33 6.32 2.66 7 3 C1.555 5.475 1.555 5.475 -4 8 C-4 6 -4 6 -2 4 C-2.66 3.34 -3.32 2.68 -4 2 C-2.125 0.9375 -2.125 0.9375 0 0 Z " fill="#1B1523" transform="translate(301,273)"/>
<path d="M0 0 C-4.36363636 4.72727273 -4.36363636 4.72727273 -7.1875 5.9375 C-8.0846875 5.9684375 -8.0846875 5.9684375 -9 6 C-9.66 5.34 -10.32 4.68 -11 4 C-11.66 3.67 -12.32 3.34 -13 3 C-4.57142857 -0.42857143 -4.57142857 -0.42857143 0 0 Z " fill="#BBA1D8" transform="translate(167,321)"/>
<path d="M0 0 C0 0.33 0 0.66 0 1 C-0.69867188 1.13277344 -1.39734375 1.26554687 -2.1171875 1.40234375 C-3.02726562 1.57894531 -3.93734375 1.75554687 -4.875 1.9375 C-5.77992188 2.11152344 -6.68484375 2.28554688 -7.6171875 2.46484375 C-9.99956317 2.89963701 -9.99956317 2.89963701 -12 4 C-13.87379605 4.07033769 -15.75001102 4.0843022 -17.625 4.0625 C-18.62789063 4.05347656 -19.63078125 4.04445313 -20.6640625 4.03515625 C-21.43492187 4.02355469 -22.20578125 4.01195312 -23 4 C-16.53367868 -0.31088088 -7.60223422 -0.29239362 0 0 Z " fill="#A692C0" transform="translate(369,282)"/>
<path d="M0 0 C2.0625 0.4375 2.0625 0.4375 4 1 C3.67 2.65 3.34 4.3 3 6 C0.03 5.67 -2.94 5.34 -6 5 C-5.195625 4.360625 -4.39125 3.72125 -3.5625 3.0625 C-1.7249496 1.59396498 -1.7249496 1.59396498 0 0 Z " fill="#1B1421" transform="translate(218,377)"/>
<path d="M0 0 C2 1 2 1 2 1 Z M-1 1 C2.125 0.8125 2.125 0.8125 5 1 C3.12050295 4.57104439 1.82946843 6.54744301 -2 8 C-2.625 6.1875 -2.625 6.1875 -3 4 C-2.34 3.01 -1.68 2.02 -1 1 Z " fill="#BDA3DC" transform="translate(228,362)"/>
<path d="M0 0 C-2.9887222 1.65038488 -5.71367438 2.4885716 -9.0625 3.125 C-9.91972656 3.29257812 -10.77695312 3.46015625 -11.66015625 3.6328125 C-14 4 -14 4 -17 4 C-17 3.34 -17 2.68 -17 2 C-14.91952703 1.4678559 -12.83547707 0.94968214 -10.75 0.4375 C-9.58984375 0.14746094 -8.4296875 -0.14257812 -7.234375 -0.44140625 C-4.27909017 -0.95179964 -2.75565899 -1.02996165 0 0 Z " fill="#24182D" transform="translate(276,337)"/>
<path d="M0 0 C0.66 0.99 1.32 1.98 2 3 C0.22950311 3.05410687 -1.54146849 3.09284119 -3.3125 3.125 C-4.79169922 3.15980469 -4.79169922 3.15980469 -6.30078125 3.1953125 C-9 3 -9 3 -12 1 C-7.58648124 -0.78642426 -4.61732249 -1.36420892 0 0 Z " fill="#5C471F" transform="translate(29,330)"/>
<path d="M0 0 C0.66 0.99 1.32 1.98 2 3 C0.38555822 4.61444178 -1.60775471 4.62671579 -3.8125 5.0625 C-4.68519531 5.23910156 -5.55789063 5.41570312 -6.45703125 5.59765625 C-9 6 -9 6 -13 6 C-13 4.68 -13 3.36 -13 2 C-9.04 2 -5.08 2 -1 2 C-0.67 1.34 -0.34 0.68 0 0 Z " fill="#25192C" transform="translate(268,297)"/>
<path d="M0 0 C0.66 0 1.32 0 2 0 C2 0.66 2 1.32 2 2 C2.99 2.33 3.98 2.66 5 3 C4.67 3.66 4.34 4.32 4 5 C4.08780403 7.04498425 4.24241538 9.08744948 4.4375 11.125 C4.59025391 12.76855469 4.59025391 12.76855469 4.74609375 14.4453125 C4.82988281 15.28835938 4.91367187 16.13140625 5 17 C4.34 17 3.68 17 3 17 C2.49622232 14.73000175 1.99709981 12.45896997 1.5 10.1875 C1.08234375 8.29064453 1.08234375 8.29064453 0.65625 6.35546875 C0 3 0 3 0 0 Z " fill="#150D1D" transform="translate(370,285)"/>
<path d="M0 0 C4.62 2.31 9.24 4.62 14 7 C13.34 7.66 12.68 8.32 12 9 C8.51656912 7.74209441 5.92599768 6.24326489 3 4 C2.01 3.67 1.02 3.34 0 3 C0 2.01 0 1.02 0 0 Z " fill="#1E1328" transform="translate(283,342)"/>
<path d="M0 0 C0.99 0.33 1.98 0.66 3 1 C2.67 1.99 2.34 2.98 2 4 C0.0390625 4.80078125 0.0390625 4.80078125 -2.375 5.3125 C-3.16648437 5.49425781 -3.95796875 5.67601562 -4.7734375 5.86328125 C-7 6 -7 6 -10 4 C-9.36191406 3.79503906 -8.72382812 3.59007812 -8.06640625 3.37890625 C-7.24011719 3.10949219 -6.41382812 2.84007812 -5.5625 2.5625 C-4.73878906 2.29566406 -3.91507812 2.02882813 -3.06640625 1.75390625 C-1.03780412 1.17844506 -1.03780412 1.17844506 0 0 Z " fill="#C9C8C4" transform="translate(115,324)"/>
<path d="M0 0 C2.31 0.33 4.62 0.66 7 1 C6.67 2.32 6.34 3.64 6 5 C6.66 5.33 7.32 5.66 8 6 C6.125 6.625 6.125 6.625 4 7 C2.03896546 5.03896546 1.12733357 3.49623863 0 1 C0 0.67 0 0.34 0 0 Z " fill="#17111A" transform="translate(319,361)"/>
<path d="M0 0 C0.99 0.33 1.98 0.66 3 1 C2.67 2.32 2.34 3.64 2 5 C0.35 5 -1.3 5 -3 5 C-3.33 5.66 -3.66 6.32 -4 7 C-4.33 5.68 -4.66 4.36 -5 3 C-2.6875 1.4375 -2.6875 1.4375 0 0 Z " fill="#C7C9C6" transform="translate(18,323)"/>
<path d="M0 0 C1.98 0.99 1.98 0.99 4 2 C3.74438677 4.3431213 3.40729228 6.67843403 3 9 C2.01 9.495 2.01 9.495 1 10 C0.67 6.7 0.34 3.4 0 0 Z " fill="#0A0A0A" transform="translate(98,129)"/>
<path d="M0 0 C0.61488281 0.0721875 1.22976562 0.144375 1.86328125 0.21875 C3.07564453 0.35796875 3.07564453 0.35796875 4.3125 0.5 C5.51326172 0.63921875 5.51326172 0.63921875 6.73828125 0.78125 C9.11896555 1.04813463 9.11896555 1.04813463 12 1 C12 1.99 12 2.98 12 4 C10.88625 3.979375 9.7725 3.95875 8.625 3.9375 C5.16784079 3.73619282 5.16784079 3.73619282 3 5 C0.375 4.0625 0.375 4.0625 -2 3 C-1.34 2.67 -0.68 2.34 0 2 C0 1.34 0 0.68 0 0 Z " fill="#B39CCC" transform="translate(235,304)"/>
<path d="M0 0 C-3.82941989 3.32993034 -8.37522222 5.05324525 -13 7 C-12.67 5.68 -12.34 4.36 -12 3 C-10.35 3 -8.7 3 -7 3 C-7 2.34 -7 1.68 -7 1 C-4.53721199 -0.231394 -2.7204945 -0.07159196 0 0 Z " fill="#20162A" transform="translate(321,268)"/>
<path d="M0 0 C5.28 0 10.56 0 16 0 C14.515 1.485 14.515 1.485 13 3 C12.34 2.67 11.68 2.34 11 2 C10.01 2.33 9.02 2.66 8 3 C5.66700175 3.03954234 3.33291811 3.04401732 1 3 C0.67 2.01 0.34 1.02 0 0 Z " fill="#2B2038" transform="translate(153,357)"/>
<path d="M0 0 C-0.66 1.32 -1.32 2.64 -2 4 C-4.64 3.34 -7.28 2.68 -10 2 C-6.80505194 -1.19494806 -4.22040044 -1.35655728 0 0 Z " fill="#0C0704" transform="translate(113,331)"/>
<path d="M0 0 C0.66 0.33 1.32 0.66 2 1 C-0.64 3.97 -3.28 6.94 -6 10 C-6.99 9.67 -7.98 9.34 -9 9 C-6.03 6.03 -3.06 3.06 0 0 Z " fill="#777777" transform="translate(289,56)"/>
<path d="M0 0 C0 3 0 3 -2.5 5.6875 C-3.325 6.450625 -4.15 7.21375 -5 8 C-5.6875 6.1875 -5.6875 6.1875 -6 4 C-4.15840327 1.51384442 -2.99529289 0.99843096 0 0 Z " fill="#666766" transform="translate(110,425)"/>
<path d="M0 0 C0.5775 0.61875 1.155 1.2375 1.75 1.875 C3.80249821 3.81347053 5.43366582 4.90014249 8 6 C8 6.66 8 7.32 8 8 C3.00724943 6.72278474 0.42388092 4.82669043 -3 1 C-2.01 0.67 -1.02 0.34 0 0 Z " fill="#B29AC9" transform="translate(276,334)"/>
<path d="M0 0 C2 2 2 2 2.125 4.625 C2.08375 5.40875 2.0425 6.1925 2 7 C0.02 7.33 -1.96 7.66 -4 8 C-3.01 7.67 -2.02 7.34 -1 7 C-1.33 6.01 -1.66 5.02 -2 4 C-1.0625 1.8125 -1.0625 1.8125 0 0 Z " fill="#B6A2D2" transform="translate(373,306)"/>
<path d="M0 0 C0.66 0.33 1.32 0.66 2 1 C0.7260411 3.03833424 -0.61061923 5.03852126 -2 7 C-2.66 7 -3.32 7 -4 7 C-3.67 5.02 -3.34 3.04 -3 1 C-2.01 0.67 -1.02 0.34 0 0 Z " fill="#3B353A" transform="translate(112,138)"/>
<path d="M0 0 C0.33 0.66 0.66 1.32 1 2 C0.34 2 -0.32 2 -1 2 C-1.2475 2.639375 -1.495 3.27875 -1.75 3.9375 C-3 6 -3 6 -5.125 6.75 C-6.053125 6.87375 -6.053125 6.87375 -7 7 C-6.875 5.1875 -6.875 5.1875 -6 3 C-2.9375 1.25 -2.9375 1.25 0 0 Z " fill="#BDA3D6" transform="translate(315,271)"/>
<path d="M0 0 C0.99 0.33 1.98 0.66 3 1 C1.50260417 2.23697917 0.00520833 3.47395833 -1.4921875 4.7109375 C-2.71051161 5.75250992 -3.86660097 6.86660097 -5 8 C-5 4 -5 4 -2.6875 1.6875 C-1.800625 1.130625 -0.91375 0.57375 0 0 Z " fill="#281C32" transform="translate(226,370)"/>
<path d="M0 0 C1.77049689 -0.05410687 3.54146849 -0.09284119 5.3125 -0.125 C6.29863281 -0.14820313 7.28476562 -0.17140625 8.30078125 -0.1953125 C11 0 11 0 14 2 C9.04653013 3.59789351 4.86717585 2.28306814 0 1 C0 0.67 0 0.34 0 0 Z " fill="#AD99C1" transform="translate(326,362)"/>
<path d="M0 0 C1.65 0 3.3 0 5 0 C2.24479785 2.95929119 -0.46627288 5.03681826 -4 7 C-3.67 5.35 -3.34 3.7 -3 2 C-2.01 1.67 -1.02 1.34 0 1 C0 0.67 0 0.34 0 0 Z " fill="#1E1525" transform="translate(279,289)"/>
<path d="M0 0 C1.75 1.4375 1.75 1.4375 3 3 C2.34 3 1.68 3 1 3 C1.33 3.99 1.66 4.98 2 6 C-1.16115776 4.63016497 -1.9927092 4.0109362 -4 1 C-2.1875 0.3125 -2.1875 0.3125 0 0 Z " fill="#555555" transform="translate(25,428)"/>
<path d="M0 0 C3.153498 0.70077733 6.08961104 1.5841351 9 3 C9.33 3.99 9.66 4.98 10 6 C6.40992874 4.66654496 3.20429093 3.1056769 0 1 C0 0.67 0 0.34 0 0 Z " fill="#B49ECE" transform="translate(290,345)"/>
<path d="M0 0 C-2.6860286 1.79068573 -4.6626589 2.66055791 -7.6875 3.625 C-8.49574219 3.88539063 -9.30398437 4.14578125 -10.13671875 4.4140625 C-10.75160156 4.60742188 -11.36648437 4.80078125 -12 5 C-12 4.34 -12 3.68 -12 3 C-8.02806853 -0.12940055 -4.95769796 -0.29162929 0 0 Z " fill="#B59FCB" transform="translate(259,339)"/>
<path d="M0 0 C0.33 0.99 0.66 1.98 1 3 C-1.64 4.98 -4.28 6.96 -7 9 C-5.04783565 5.09567131 -3.12613393 2.96160056 0 0 Z " fill="#7B7B7B" transform="translate(277,68)"/>
<path d="M0 0 C1.65 0.99 3.3 1.98 5 3 C4.01 3.66 3.02 4.32 2 5 C2 5.99 2 6.98 2 8 C1.34 7.67 0.68 7.34 0 7 C0 4.69 0 2.38 0 0 Z " fill="#C7CACB" transform="translate(9,336)"/>
<path d="M0 0 C2.475 0.99 2.475 0.99 5 2 C4.01 2.495 4.01 2.495 3 3 C3 3.66 3 4.32 3 5 C1.68 4.67 0.36 4.34 -1 4 C-0.67 2.68 -0.34 1.36 0 0 Z " fill="#0B0B0B" transform="translate(27,425)"/>
<path d="M0 0 C0.66 1.32 1.32 2.64 2 4 C1.01 5.32 0.02 6.64 -1 8 C-1.93065133 5.39417629 -2.14917407 4.35801776 -1.0625 1.75 C-0.711875 1.1725 -0.36125 0.595 0 0 Z " fill="#C5B6C8" transform="translate(107,409)"/>
<path d="M0 0 C2 1 2 1 3 3 C1.02 3.66 -0.96 4.32 -3 5 C-3.66 4.34 -4.32 3.68 -5 3 C-2.625 1.4375 -2.625 1.4375 0 0 Z " fill="#B59DD1" transform="translate(296,281)"/>
<path d="M0 0 C0.99 0 1.98 0 3 0 C1.66666667 2.66666667 0.33333333 5.33333333 -1 8 C-1.93065133 5.39417629 -2.14917407 4.35801776 -1.0625 1.75 C-0.711875 1.1725 -0.36125 0.595 0 0 Z " fill="#1F1F1F" transform="translate(148,183)"/>
<path d="M0 0 C1.32 0.33 2.64 0.66 4 1 C2.35 2.65 0.7 4.3 -1 6 C-1.33 5.34 -1.66 4.68 -2 4 C-1.0625 1.875 -1.0625 1.875 0 0 Z " fill="#C9BACB" transform="translate(101,418)"/>
<path d="M0 0 C2.97 0.495 2.97 0.495 6 1 C5.67 1.99 5.34 2.98 5 4 C5.66 4 6.32 4 7 4 C6.67 4.66 6.34 5.32 6 6 C3.97945196 4.35830472 1.97956942 2.69088222 0 1 C0 0.67 0 0.34 0 0 Z " fill="#B7A0CF" transform="translate(191,379)"/>
<path d="M0 0 C-0.33 0.99 -0.66 1.98 -1 3 C-4.5625 4.1875 -4.5625 4.1875 -8 5 C-8 4.34 -8 3.68 -8 3 C-2.25 0 -2.25 0 0 0 Z " fill="#B8A2D1" transform="translate(325,267)"/>
<path d="M0 0 C6.875 3.75 6.875 3.75 8 6 C5.69 5.67 3.38 5.34 1 5 C1.33 4.34 1.66 3.68 2 3 C1.34 2.67 0.68 2.34 0 2 C0 1.34 0 0.68 0 0 Z " fill="#838383" transform="translate(155,47)"/>
<path d="M0 0 C-1 3 -1 3 -2.75 4.125 C-5.15292138 5.05946943 -7.46046361 5.57674394 -10 6 C-8.80702902 3.61405803 -7.85642735 3.16265153 -5.5625 1.875 C-4.94503906 1.52179687 -4.32757813 1.16859375 -3.69140625 0.8046875 C-2 0 -2 0 0 0 Z " fill="#8C8C8C" transform="translate(321,34)"/>
</svg>
